<?xml version="1.0" encoding="UTF-8"?>
<svg id="Capa_1" data-name="Capa 1" xmlns="http://www.w3.org/2000/svg" viewBox="0 0 204.95 214.93">
  <defs>
    <style>
      .cls-1 {
        fill: #ffff;
        stroke-width: 0px;
      }
    </style>
  </defs>
  <path class="cls-1" d="M102.48,163.73c-31.02,0-56.26-25.24-56.26-56.26s25.24-56.26,56.26-56.26,56.26,25.24,56.26,56.26-25.24,56.26-56.26,56.26ZM102.48,62.2c-24.96,0-45.26,20.3-45.26,45.26s20.3,45.26,45.26,45.26,45.26-20.3,45.26-45.26-20.3-45.26-45.26-45.26Z"/>
  <path class="cls-1" d="M102.48,214.93c-3.04,0-5.5-2.46-5.5-5.5v-24.56c0-3.04,2.46-5.5,5.5-5.5s5.5,2.46,5.5,5.5v24.56c0,3.04-2.46,5.5-5.5,5.5Z"/>
  <path class="cls-1" d="M162.41,195.46c-1.7,0-3.38-.79-4.45-2.27l-14.44-19.87c-1.79-2.46-1.24-5.9,1.22-7.68,2.46-1.79,5.9-1.24,7.68,1.22l14.44,19.87c1.79,2.46,1.24,5.9-1.22,7.68-.98.71-2.11,1.05-3.23,1.05Z"/>
  <path class="cls-1" d="M199.45,144.48c-.56,0-1.14-.09-1.7-.27l-23.36-7.59c-2.89-.94-4.47-4.04-3.53-6.93.94-2.89,4.04-4.47,6.93-3.53l23.36,7.59c2.89.94,4.47,4.04,3.53,6.93-.75,2.32-2.91,3.8-5.23,3.8Z"/>
  <path class="cls-1" d="M176.09,89.05c-2.32,0-4.47-1.48-5.23-3.8-.94-2.89.64-5.99,3.53-6.93l23.36-7.59c2.89-.94,5.99.64,6.93,3.53.94,2.89-.64,5.99-3.53,6.93l-23.36,7.59c-.56.18-1.14.27-1.7.27Z"/>
  <path class="cls-1" d="M147.97,50.34c-1.12,0-2.25-.34-3.23-1.05-2.46-1.79-3-5.22-1.22-7.68l14.44-19.87c1.79-2.46,5.23-3,7.68-1.22,2.46,1.79,3,5.22,1.22,7.68l-14.44,19.87c-1.08,1.48-2.75,2.27-4.45,2.27Z"/>
  <path class="cls-1" d="M102.48,35.56c-3.04,0-5.5-2.46-5.5-5.5V5.5c0-3.04,2.46-5.5,5.5-5.5s5.5,2.46,5.5,5.5v24.56c0,3.04-2.46,5.5-5.5,5.5Z"/>
  <path class="cls-1" d="M56.98,50.34c-1.7,0-3.38-.79-4.45-2.27l-14.44-19.87c-1.79-2.46-1.24-5.9,1.22-7.68,2.46-1.79,5.9-1.24,7.68,1.22l14.44,19.87c1.79,2.46,1.24,5.9-1.22,7.68-.98.71-2.11,1.05-3.23,1.05Z"/>
  <path class="cls-1" d="M28.86,89.05c-.56,0-1.14-.09-1.7-.27l-23.36-7.59c-2.89-.94-4.47-4.04-3.53-6.93.94-2.89,4.04-4.47,6.93-3.53l23.36,7.59c2.89.94,4.47,4.04,3.53,6.93-.75,2.32-2.91,3.8-5.23,3.8Z"/>
  <path class="cls-1" d="M5.5,144.48c-2.32,0-4.47-1.48-5.23-3.8-.94-2.89.64-5.99,3.53-6.93l23.36-7.59c2.89-.94,5.99.64,6.93,3.53.94,2.89-.64,5.99-3.53,6.93l-23.36,7.59c-.56.18-1.14.27-1.7.27Z"/>
  <path class="cls-1" d="M42.54,195.46c-1.12,0-2.25-.34-3.23-1.05-2.46-1.79-3-5.22-1.22-7.68l14.44-19.87c1.79-2.46,5.23-3,7.68-1.22,2.46,1.79,3,5.22,1.22,7.68l-14.44,19.87c-1.08,1.48-2.75,2.27-4.45,2.27Z"/>
</svg>