<?xml version="1.0" encoding="UTF-8"?>
<svg id="Capa_1" data-name="Capa 1" xmlns="http://www.w3.org/2000/svg" viewBox="0 0 223.79 139.17">
  <defs>
    <style>
      .cls-1 {
        fill: #ffff;
        stroke-width: 0px;
      }
    </style>
  </defs>
  <path class="cls-1" d="M167.53,139.17h-97.95C31.21,139.17,0,107.95,0,69.58S31.21,0,69.58,0c26.84,0,51.05,15.44,62.58,39.16,9.95-8.03,22.45-12.52,35.36-12.52,31.02,0,56.26,25.24,56.26,56.26s-25.24,56.26-56.26,56.26ZM69.58,11c-32.3,0-58.58,26.28-58.58,58.58s26.28,58.58,58.58,58.58h97.95c24.96,0,45.26-20.3,45.26-45.26s-20.3-45.26-45.26-45.26c-12.64,0-24.79,5.35-33.35,14.66-1.31,1.43-3.27,2.06-5.17,1.67-1.9-.39-3.45-1.75-4.08-3.58-8.17-23.56-30.41-39.39-55.35-39.39Z"/>
</svg>