<?xml version="1.0" encoding="UTF-8"?>
<svg id="Capa_1" data-name="Capa 1" xmlns="http://www.w3.org/2000/svg" viewBox="0 0 332.63 213.47">
  <defs>
    <style>
      .cls-1 {
        fill: #ffff;
      }

      .cls-1, .cls-2 {
        stroke-width: 0px;
      }
    </style>
  </defs>
  <path class="cls-1" d="M145.2,82.76c-6.56-10.93-17.65-19.06-31.17-21.37-24.61-4.2-48.04,12.39-52.24,36.99-4.21,24.6,12.39,48.04,36.99,52.24,3.5.6,7,.77,10.45.56-.25-2.4-.38-4.83-.38-7.3,0-26.34,14.72-49.31,36.36-61.13Z"/>
  <path class="cls-2" d="M98.77,150.62c-24.6-4.21-41.19-27.64-36.99-52.24,4.21-24.6,27.63-41.19,52.24-36.99,13.52,2.31,24.61,10.44,31.17,21.37,3.22-1.76,6.61-3.26,10.11-4.5-8.05-14.17-22.15-24.76-39.43-27.71-30.58-5.24-59.71,15.4-64.94,45.98-5.23,30.58,15.4,59.71,45.98,64.94,3.21.55,6.42.82,9.6.82,1.59,0,3.17-.07,4.75-.21-.96-3.53-1.65-7.16-2.04-10.89-3.45.21-6.96.03-10.45-.56Z"/>
  <path class="cls-2" d="M94.28,176.88c-2.98-.51-5.84,1.5-6.35,4.49l-4.14,24.21c-.51,2.99,1.5,5.84,4.49,6.35.31.05.62.08.93.08,2.63,0,4.96-1.89,5.41-4.57l4.14-24.21c.51-2.99-1.5-5.84-4.49-6.35Z"/>
  <path class="cls-2" d="M161.8,57.45c1.39,0,2.77-.52,3.84-1.56l17.58-17.15c2.17-2.12,2.22-5.6.1-7.78-2.12-2.18-5.61-2.22-7.78-.1l-17.58,17.15c-2.17,2.12-2.22,5.6-.1,7.78,1.08,1.1,2.51,1.66,3.94,1.66Z"/>
  <path class="cls-2" d="M118.52,35.13c.31.05.62.08.93.08,2.63,0,4.96-1.89,5.41-4.57l4.14-24.21c.51-2.99-1.5-5.84-4.49-6.35-2.99-.51-5.84,1.5-6.35,4.49l-4.14,24.21c-.51,2.99,1.5,5.84,4.49,6.35Z"/>
  <path class="cls-2" d="M67.17,39.05c.96,1.94,2.91,3.06,4.93,3.06.82,0,1.65-.18,2.43-.57,2.72-1.35,3.84-4.64,2.49-7.37l-10.88-22.02c-1.35-2.72-4.65-3.84-7.37-2.49-2.72,1.35-3.84,4.64-2.49,7.37l10.88,22.02Z"/>
  <path class="cls-2" d="M13.56,63.47l21.74,11.42c.82.43,1.69.63,2.55.63,1.98,0,3.89-1.07,4.87-2.94,1.41-2.69.38-6.01-2.31-7.43l-21.74-11.42c-2.69-1.41-6.01-.38-7.43,2.31-1.41,2.69-.38,6.01,2.31,7.43Z"/>
  <path class="cls-2" d="M35.24,116.38c-.44-3-3.22-5.08-6.24-4.65l-24.3,3.54c-3.01.44-5.09,3.23-4.65,6.24.4,2.74,2.75,4.71,5.44,4.71.26,0,.53-.02.8-.06l24.3-3.54c3.01-.44,5.09-3.23,4.65-6.24Z"/>
  <path class="cls-2" d="M47.16,156.13l-17.58,17.15c-2.17,2.12-2.22,5.6-.1,7.78,1.08,1.1,2.51,1.66,3.94,1.66s2.77-.52,3.84-1.56l17.58-17.15c2.17-2.12,2.22-5.6.1-7.78-2.12-2.18-5.61-2.22-7.78-.1Z"/>
  <path class="cls-2" d="M276.37,100.95c-12.91,0-25.41,4.49-35.36,12.52-11.53-23.72-35.74-39.16-62.58-39.16-8.1,0-15.87,1.41-23.11,3.96-3.51,1.24-6.89,2.74-10.11,4.5-21.64,11.81-36.36,34.78-36.36,61.13,0,2.47.13,4.9.38,7.3.39,3.73,1.09,7.36,2.04,10.89,8.02,29.57,35.08,51.4,67.16,51.4h97.95c31.02,0,56.26-25.24,56.26-56.26s-25.24-56.26-56.26-56.26ZM276.37,202.47h-97.95c-7.57,0-14.8-1.46-21.44-4.08-5.68-2.24-10.93-5.33-15.58-9.14-9.12-7.45-15.94-17.6-19.28-29.21-1.01-3.51-1.7-7.14-2.04-10.89-.16-1.74-.25-3.5-.25-5.28,0-21.87,12.05-40.96,29.86-51.03,3.2-1.81,6.58-3.32,10.11-4.51,5.85-1.97,12.11-3.05,18.62-3.05,5.57,0,11,.79,16.17,2.28,5.9,1.7,11.46,4.31,16.49,7.69,10.32,6.93,18.42,17.12,22.69,29.42.63,1.83,2.18,3.19,4.08,3.58,1.89.39,3.86-.24,5.17-1.67,8.56-9.32,20.71-14.67,33.35-14.67,24.96,0,45.26,20.3,45.26,45.26s-20.3,45.26-45.26,45.26Z"/>
</svg>