<?xml version="1.0" encoding="UTF-8"?>
<svg id="Capa_1" data-name="Capa 1" xmlns="http://www.w3.org/2000/svg" viewBox="0 0 112.52 152.53">
  <defs>
    <style>
      .cls-1 {
        fill: #ffff;
        stroke-width: 0px;
      }
    </style>
  </defs>
  <path class="cls-1" d="M56.26,152.53C25.24,152.53,0,127.29,0,96.26,0,67.12,46.67,8.62,51.99,2.04c1.04-1.29,2.62-2.04,4.28-2.04s3.23.75,4.28,2.04c5.32,6.58,51.99,65.08,51.99,94.22,0,31.02-25.24,56.26-56.26,56.26ZM56.26,14.37c-15.73,20.31-45.26,62.45-45.26,81.89,0,24.96,20.3,45.26,45.26,45.26s45.26-20.3,45.26-45.26c0-19.45-29.53-61.59-45.26-81.89Z"/>
</svg>