<?xml version="1.0" encoding="UTF-8"?>
<svg id="Capa_1" data-name="Capa 1" xmlns="http://www.w3.org/2000/svg" viewBox="0 0 431.19 377.36">
  <defs>
    <style>
      .cls-1 {
        fill: #ffc809;
        stroke-width: 0px;
      }
    </style>
  </defs>
  <g id="DOww6y.tif">
    <g>
      <path class="cls-1" d="M304.42,377.36h-5.47c-.16-.06-.32-.16-.48-.17-5.89-.28-11.59-1.57-17.18-3.35-12.1-3.86-23.1-9.9-33.58-16.95-9.54-6.42-18.41-13.67-26.85-21.46-1.51-1.4-3.01-2.81-4.52-4.22-.18.15-.29.24-.39.33-7.87,7.58-16.18,14.63-25.05,21-11.21,8.05-23.02,15-36.05,19.72-8.42,3.05-17.05,5.06-26.09,4.94-6.81-.09-13.29-1.46-19.26-4.85-7.61-4.33-12.72-10.88-16.41-18.65-4.28-9.02-6.26-18.64-7.14-28.5-.97-10.9-.61-21.79.62-32.65.95-8.4,2.38-16.72,4.27-24.96.53-2.31,1.07-4.62,1.61-6.97-.27-.11-.45-.19-.65-.26-7.26-2.49-14.59-4.76-21.75-7.5-13.09-5.01-25.6-11.25-37.26-19.09-8.39-5.64-16.15-12.02-22.52-19.94-4.1-5.1-7.42-10.64-9.12-17.02-.5-1.88-.78-3.83-1.17-5.75,0-1.89,0-3.79,0-5.68.06-.12.15-.24.16-.37.47-4.79,2.07-9.21,4.35-13.41,3.76-6.94,8.98-12.68,14.89-17.83,9.85-8.6,21-15.19,32.73-20.83,11.71-5.63,23.84-10.16,36.28-13.91,1.46-.44,2.92-.89,4.4-1.34-.07-.33-.11-.57-.17-.8-3.3-13.47-5.67-27.09-6.6-40.94-.76-11.45-.53-22.85,1.59-34.16,1.68-8.96,4.45-17.53,9.64-25.14,6.65-9.75,15.91-15.04,27.64-16.07,6.61-.58,13.09.26,19.49,1.83,10.08,2.48,19.47,6.67,28.48,11.76,14.15,8,26.93,17.85,38.89,28.81,1.36,1.25,2.7,2.51,4.07,3.77.25-.23.4-.36.55-.51,9.77-9.41,20.15-18.08,31.39-25.69,8.97-6.07,18.35-11.37,28.5-15.24,9.22-3.51,18.66-5.81,28.63-5.2,7.85.48,14.95,2.94,21.04,8.03,6.11,5.1,10.13,11.65,13.05,18.94,3.69,9.21,5.32,18.86,6.02,28.69.62,8.62.38,17.23-.36,25.85-.94,10.92-2.74,21.69-5.17,32.36-.3,1.32-.59,2.64-.89,3.99,1.27.39,2.43.77,3.61,1.12,14.67,4.39,28.9,9.89,42.49,16.99,10.04,5.25,19.58,11.25,28.04,18.84,6.4,5.74,11.96,12.13,15.5,20.08,3.54,7.95,3.91,16.04.99,24.26-2.39,6.73-6.37,12.45-11.15,17.66-6.86,7.48-14.9,13.51-23.49,18.81-15.64,9.65-32.46,16.65-49.9,22.26-1.69.54-3.4,1.05-5.14,1.58.05.3.08.54.13.78,3.47,14.35,5.79,28.86,6.32,43.63.4,10.97-.17,21.87-2.5,32.63-1.78,8.25-4.52,16.13-9.17,23.24-6.11,9.35-14.52,15.23-25.67,16.96-1.41.22-2.83.37-4.25.55ZM214.89,257.05c0-.09,0-.18,0-.26,3.19,0,6.38.1,9.57-.02,9.53-.34,19.06-.77,28.59-1.13.98-.04,1.56-.4,2.1-1.22,7.74-11.74,15.23-23.64,21.98-35.98,5.28-9.65,10.26-19.47,15.38-29.2.3-.58.35-1.04.03-1.66-1.35-2.58-2.56-5.23-3.96-7.77-5.47-9.95-10.79-19.99-16.57-29.76-5.53-9.35-11.56-18.4-17.4-27.57-.22-.34-.75-.65-1.16-.68-4.09-.31-8.18-.69-12.28-.78-11.11-.25-22.23-.59-33.34-.47-9.99.11-19.97.79-29.95,1.19-.72.03-1.14.3-1.52.89-4.88,7.65-9.93,15.21-14.66,22.96-8.33,13.65-15.89,27.73-22.86,42.13-.37.75-.33,1.33.03,2.05,6.9,14.08,14.25,27.91,22.46,41.27,4.97,8.09,10.24,16,15.41,23.97.23.36.79.65,1.23.7,1.74.19,3.49.32,5.24.38,10.55.34,21.1.65,31.65.97ZM97.36,242.99c.15-.44.25-.69.34-.96,5.7-17.95,12.44-35.51,20.24-52.66.19-.42.12-1.1-.09-1.54-7.14-15.6-13.35-31.56-18.67-47.86-.51-1.56-1.01-3.12-1.5-4.63-.18-.02-.25-.04-.31-.03-1.38.41-2.76.81-4.13,1.23-15.06,4.6-29.65,10.33-43.4,18.05-8.01,4.49-15.63,9.54-22.17,16.06-3.63,3.62-6.89,7.52-8.54,12.47-.57,1.7-1.04,3.59-.88,5.33.34,3.64,1.59,7.1,3.2,10.39,2.91,5.96,7.23,10.64,12.5,14.65,10.11,7.72,21.1,13.85,32.81,18.68,7.18,2.96,14.56,5.46,21.88,8.09,2.83,1.02,5.74,1.8,8.72,2.73ZM333.69,135.36c-.3.9-.54,1.62-.78,2.35-5.46,17-11.94,33.61-19.5,49.79-.26.57-.3.99-.01,1.55.67,1.31,1.26,2.66,1.88,3.99,6.77,14.61,12.81,29.5,17.84,44.8.45,1.35.93,2.69,1.41,4.09.65-.17,1.19-.3,1.72-.46,11.53-3.48,22.75-7.76,33.6-12.98,9.15-4.4,17.96-9.39,25.99-15.65,5.42-4.22,10.41-8.86,14.05-14.8,3.83-6.26,4.22-12.54.33-18.95-2.73-4.49-6.3-8.23-10.27-11.62-7.99-6.84-16.99-12.14-26.36-16.82-10.05-5.02-20.48-9.13-31.16-12.61-2.86-.93-5.75-1.77-8.75-2.69ZM110.14,264.91c-.63,2.73-1.25,5.31-1.81,7.91-2.54,11.67-4.25,23.44-4.58,35.4-.26,9.32.18,18.58,2.39,27.68,1.3,5.35,3.15,10.47,6.42,14.97,1.65,2.26,3.49,4.44,6.1,5.51,6.42,2.62,13.12,3.09,19.94,1.94,4.05-.68,7.76-2.33,11.52-3.89,8.84-3.66,17.26-8.08,25.29-13.28,7.65-4.95,14.74-10.6,21.46-16.75,2.27-2.08,4.51-4.18,6.79-6.3-.24-.29-.38-.48-.55-.66-12.11-13.15-23.39-26.97-33.75-41.53-1.41-1.98-2.8-2.97-5.34-3.13-6.33-.41-12.64-1.11-18.92-1.99-8.29-1.15-16.55-2.54-24.82-3.9-3.35-.55-6.66-1.3-10.13-1.99ZM321.93,264.4c-6.18,1.21-12.14,2.49-18.14,3.54-6.52,1.14-13.06,2.19-19.63,3.06-6.04.8-12.12,1.36-18.19,1.94-1.21.11-1.82.71-2.44,1.62-8.99,13.12-18.72,25.67-29.17,37.65-1.75,2-3.51,3.99-5.3,6.03.68.64,1.29,1.21,1.9,1.78,11.05,10.37,22.8,19.83,35.96,27.46,7.27,4.22,14.82,7.81,22.97,10.01,5.28,1.43,10.64,2.25,16.12,1.37,2.51-.4,4.99-1.01,6.99-2.68,5.58-4.65,9.43-10.49,11.68-17.4,1.43-4.38,1.72-8.94,2.25-13.45.79-6.8,1.23-13.63.9-20.47-.27-5.56-.57-11.14-1.28-16.66-.72-5.62-1.93-11.18-2.99-16.75-.45-2.36-1.07-4.69-1.61-7.04ZM203.06,59.76c-.37-.33-.69-.6-.99-.89-6.58-6.22-13.48-12.07-20.78-17.43-10.55-7.74-21.62-14.58-33.97-19.13-6.15-2.26-12.44-3.9-19.07-3.76-4.1.08-8,.93-11.41,3.36-3.29,2.35-5.47,5.59-7.18,9.18-3.34,7-4.71,14.5-5.4,22.14-.82,9.03-.54,18.06.32,27.09.97,10.14,2.82,20.12,5.13,30.02.22.94.5,1.87.76,2.83.3-.05.51-.07.71-.11,5.95-1.17,11.88-2.38,17.84-3.49,12.2-2.27,24.51-3.85,36.87-4.98.83-.08,1.31-.4,1.77-1.05,9.46-13.38,19.63-26.21,30.57-38.42,1.59-1.77,3.18-3.53,4.85-5.37ZM320.87,113.35c.15-.5.3-.92.4-1.36,3.07-12.95,5.14-26.05,5.73-39.37.4-9.06.13-18.09-1.52-27.03-1.1-5.99-2.78-11.79-5.85-17.12-3.71-6.44-9.08-10.15-16.67-10.35-4.39-.11-8.67.53-12.88,1.7-10.03,2.78-19.15,7.51-27.91,13.02-11.26,7.09-21.51,15.47-31.19,24.57-.83.78-1.66,1.57-2.52,2.37.29.33.5.57.71.8,7.23,7.94,14.24,16.06,20.77,24.58,4.63,6.04,9.08,12.21,13.65,18.3.34.45.9.97,1.41,1.03,5.53.69,11.1,1.13,16.6,1.96,9.7,1.46,19.37,3.12,29.04,4.77,3.41.58,6.78,1.4,10.24,2.13ZM302.72,209.44c-7.8,15.07-16.17,29.55-25.22,43.9,13.42-1.56,26.44-3.78,39.42-6.72-4.11-12.64-8.78-24.9-14.19-37.18ZM154.01,253.74c-9.1-14.26-17.47-28.66-25.24-43.64-5.18,12.33-9.79,24.64-13.68,37.35,12.83,2.76,25.7,4.85,38.91,6.28ZM216.26,305.02c8.8-9.73,17.04-19.77,24.81-30.51-16.87.75-33.44.69-50.23.08,8.09,10.68,16.45,20.75,25.42,30.43ZM316.06,130.89c-12.69-2.89-25.42-5.08-38.51-6.7,9.01,14.11,17.17,28.39,25.01,43.12,5.18-12.04,9.67-24.06,13.5-36.42ZM240.42,102.76c-2.11-3.82-21.84-27.65-24.76-29.93-8.74,9.53-17.01,19.44-25,29.93,16.71-.71,33.2-.73,49.75,0ZM115.43,130.73c.97,4.75,11.46,33.29,13.4,36.44,7.59-14.66,15.8-28.91,24.68-42.85-3.33-.09-30.04,4.42-38.08,6.41Z"/>
      <path class="cls-1" d="M177.01,188.6c0-21.21,17.24-38.58,38.31-38.58,21.57,0,38.84,17.15,38.84,38.59,0,21.47-17.25,38.65-38.78,38.64-21.14-.01-38.35-17.34-38.36-38.64Z"/>
    </g>
  </g>
</svg>