<?xml version="1.0" encoding="UTF-8"?>
<svg id="Capa_1" data-name="Capa 1" xmlns="http://www.w3.org/2000/svg" viewBox="0 0 223.79 197.94">
  <defs>
    <style>
      .cls-1 {
        fill: #ffff;
        stroke-width: 0px;
      }
    </style>
  </defs>
  <path class="cls-1" d="M167.53,26.64c-12.91,0-25.42,4.49-35.36,12.52C120.64,15.44,96.43,0,69.58,0,31.22,0,0,31.22,0,69.58s31.22,69.58,69.58,69.58h97.95c31.02,0,56.26-25.24,56.26-56.26s-25.24-56.26-56.26-56.26ZM167.53,128.17h-97.95c-32.3,0-58.58-26.28-58.58-58.58S37.28,11,69.58,11c24.94,0,47.18,15.83,55.35,39.39.63,1.83,2.18,3.19,4.08,3.58,1.9.4,3.86-.24,5.17-1.67,8.56-9.32,20.71-14.67,33.35-14.67,24.96,0,45.26,20.3,45.26,45.26s-20.3,45.26-45.26,45.26Z"/>
  <path class="cls-1" d="M66.9,151.16c-3.04,0-5.5,2.46-5.5,5.5v35.78c0,3.04,2.46,5.5,5.5,5.5s5.5-2.46,5.5-5.5v-35.78c0-3.04-2.46-5.5-5.5-5.5Z"/>
  <path class="cls-1" d="M126.9,151.16c-3.04,0-5.5,2.46-5.5,5.5v35.78c0,3.04,2.46,5.5,5.5,5.5s5.5-2.46,5.5-5.5v-35.78c0-3.04-2.46-5.5-5.5-5.5Z"/>
  <path class="cls-1" d="M156.9,151.16c-3.04,0-5.5,2.46-5.5,5.5v35.78c0,3.04,2.46,5.5,5.5,5.5s5.5-2.46,5.5-5.5v-35.78c0-3.04-2.46-5.5-5.5-5.5Z"/>
  <path class="cls-1" d="M96.9,151.16c-3.04,0-5.5,2.46-5.5,5.5v35.78c0,3.04,2.46,5.5,5.5,5.5s5.5-2.46,5.5-5.5v-35.78c0-3.04-2.46-5.5-5.5-5.5Z"/>
</svg>