<?xml version="1.0" encoding="UTF-8"?>
<svg id="Capa_1" data-name="Capa 1" xmlns="http://www.w3.org/2000/svg" viewBox="0 0 110.22 89.25">
  <defs>
    <style>
      .cls-1 {
        fill: #1d1d1b;
        stroke-width: 0px;
      }
    </style>
  </defs>
  <path class="cls-1" d="M107.87,79.24l-41.43-28.96c7.39-15.19,2.85-33.98-11.42-43.96C47.36.97,38.07-1.08,28.87.54,19.67,2.18,11.65,7.29,6.3,14.95-4.75,30.76-.88,52.62,14.93,63.67c6.09,4.26,13.07,6.3,19.99,6.3,9.3,0,18.48-3.71,25.2-10.68l41.44,28.97c.96.67,2.06.99,3.15.99,1.74,0,3.44-.82,4.51-2.35,1.74-2.49,1.13-5.92-1.36-7.66ZM21.23,54.65c-10.84-7.58-13.49-22.56-5.92-33.4,3.67-5.25,9.17-8.76,15.47-9.88,1.41-.25,2.83-.37,4.23-.37,4.87,0,9.62,1.48,13.69,4.33,5.25,3.67,8.76,9.17,9.88,15.47,1.12,6.31-.29,12.67-3.96,17.92-7.58,10.84-22.56,13.49-33.4,5.92Z"/>
</svg>