<?xml version="1.0" encoding="UTF-8"?>
<svg id="Capa_1" data-name="Capa 1" xmlns="http://www.w3.org/2000/svg" viewBox="0 0 157.87 164.18">
  <defs>
    <style>
      .cls-1 {
        fill: #ffff;
        stroke-width: 0px;
      }
    </style>
  </defs>
  <path class="cls-1" d="M134.04,56.49l16.9,4.53c.48.13.96.19,1.43.19,2.43,0,4.65-1.62,5.31-4.08.79-2.93-.96-5.95-3.89-6.74l-13.79-3.7,3.69-13.79c.79-2.93-.96-5.95-3.89-6.74-2.94-.79-5.95.95-6.74,3.89l-4.53,16.9-44.11,25.47V21.76l12.37-12.37c2.15-2.15,2.15-5.63,0-7.78s-5.63-2.15-7.78,0l-10.09,10.09-10.09-10.09c-2.15-2.15-5.63-2.15-7.78,0s-2.15,5.63,0,7.78l12.37,12.37v50.67l-44.11-25.47-4.53-16.9c-.79-2.93-3.8-4.67-6.74-3.89-2.93.79-4.67,3.8-3.89,6.74l3.69,13.79-13.79,3.7c-2.93.79-4.67,3.8-3.89,6.74.66,2.46,2.88,4.08,5.31,4.08.47,0,.95-.06,1.43-.19l16.9-4.53,44.11,25.47-43.88,25.34-16.9-4.53c-2.94-.79-5.95.95-6.74,3.89s.96,5.95,3.89,6.74l13.79,3.69-3.69,13.79c-.79,2.93.96,5.95,3.89,6.74.48.13.96.19,1.43.19,2.43,0,4.65-1.62,5.31-4.08l4.53-16.9,43.88-25.34v50.93l-12.37,12.37c-2.15,2.15-2.15,5.63,0,7.78,1.07,1.07,2.48,1.61,3.89,1.61s2.82-.54,3.89-1.61l10.09-10.09,10.09,10.09c1.07,1.07,2.48,1.61,3.89,1.61s2.82-.54,3.89-1.61c2.15-2.15,2.15-5.63,0-7.78l-12.37-12.37v-50.93l43.88,25.34,4.53,16.9c.66,2.46,2.88,4.08,5.31,4.08.47,0,.95-.06,1.43-.19,2.93-.79,4.67-3.8,3.89-6.74l-3.69-13.79,13.79-3.69c2.93-.79,4.67-3.8,3.89-6.74s-3.8-4.67-6.74-3.89l-16.9,4.53-43.88-25.34,44.11-25.47Z"/>
</svg>