<?xml version="1.0" encoding="UTF-8"?>
<svg id="Capa_1" data-name="Capa 1" xmlns="http://www.w3.org/2000/svg" viewBox="0 0 216.8 174.21">
  <defs>
    <style>
      .cls-1 {
        fill: #ffff;
        stroke-width: 0px;
      }
    </style>
  </defs>
  <path class="cls-1" d="M169.84,0c-3.04,0-5.5,2.46-5.5,5.5s2.46,5.5,5.5,5.5c19.83,0,35.96,16.13,35.96,35.96s-16.13,35.96-35.96,35.96H5.5c-3.04,0-5.5,2.46-5.5,5.5s2.46,5.5,5.5,5.5h164.34c25.89,0,46.96-21.06,46.96-46.96S195.74,0,169.84,0Z"/>
  <path class="cls-1" d="M149.75,107.41H39.15c-3.04,0-5.5,2.46-5.5,5.5s2.46,5.5,5.5,5.5h110.6c12.35,0,22.4,10.05,22.4,22.4s-10.05,22.4-22.4,22.4c-3.04,0-5.5,2.46-5.5,5.5s2.46,5.5,5.5,5.5c18.42,0,33.4-14.98,33.4-33.4s-14.98-33.4-33.4-33.4Z"/>
  <path class="cls-1" d="M39.15,69.41h108.55c3.04,0,5.5-2.46,5.5-5.5s-2.46-5.5-5.5-5.5H39.15c-3.04,0-5.5,2.46-5.5,5.5s2.46,5.5,5.5,5.5Z"/>
</svg>